<svg t="1744275246986" class="icon" viewBox="0 0 1170 1024" version="1.1" xmlns="http://www.w3.org/2000/svg" p-id="1491" width="200" height="200"><path d="M95.905533 754.031045v148.904675c0 14.139606 10.824112 25.841348 24.866203 27.694125l3.900581 0.243786H231.596991a46.563184 46.563184 0 1 1 0 93.077612H124.672317C58.557471 1023.951243 3.949338 973.877535 0.195029 909.810494L0 902.984478v-148.953433h95.905533z m1074.268736 0v148.904675c0 64.164556-51.63394 117.212456-117.651271 120.820494l-7.021046 0.195029H938.577278a46.563184 46.563184 0 0 1 0-93.126369h106.924674a28.522998 28.522998 0 0 0 28.474241-24.086087l0.292543-3.803067v-148.904675H1170.174269zM693.815827 228.671555a46.319398 46.319398 0 0 1 26.085135 8.873822c7.947434 5.558328 14.334635 13.213218 17.747643 21.940767l0.243786 0.633845 11.896772 36.811732h54.949433c44.222836 0 78.840491 33.10618 82.351015 77.036473l0.292543 7.45986v318.531188c0 47.635844-35.982859 84.545091-82.643558 84.545091H316.678412c-45.100467 0-82.643558-37.591848-82.643558-84.545091V381.428054c0-47.587087 35.982859-84.496334 82.643558-84.496333h54.900676l12.189315-37.348062a47.733359 47.733359 0 0 1 43.832778-30.912104h266.214646z m-13.749548 66.602419H441.301971l-11.7505 34.422626-7.801162 26.816494-2.096562 7.021046H316.678412c-8.776307 0-17.211313 8.630035-17.211314 17.893914v318.531188c0 9.26388 8.386249 17.893915 17.211314 17.893915h488.060184c8.776307 0 17.211313-8.581278 17.211314-17.893915V381.428054c0-9.26388-8.386249-17.893915-17.211314-17.893914h-102.975335l-2.047805-7.021046-7.801162-26.816494-11.848015-34.422626z m-119.357775 47.148272c95.466717 0 171.381773 77.865346 171.381773 175.52614s-75.915056 175.52614-171.381773 175.52614c-95.466717 0-171.381773-77.865346-171.381773-175.52614s75.915056-175.52614 171.381773-175.52614z m0 66.651176c-57.631083 0-105.900771 49.537377-105.900771 108.874964s48.269689 108.874964 105.900771 108.874964c57.631083 0 105.900771-49.537377 105.900771-108.874964s-48.269689-108.874964-105.900771-108.874964zM231.596991 0.048757a46.563184 46.563184 0 1 1 0 93.126369H124.672317a28.522998 28.522998 0 0 0-28.474241 24.086087l-0.292543 3.803067v148.904675H0V121.06428C0 56.899724 51.63394 3.851824 117.651271 0.243786L124.672317 0.048757H231.596991z m813.904961 0c66.114846 0 120.722979 50.073707 124.477288 114.140749l0.195029 6.826016v148.953433h-95.905533V121.06428a28.230454 28.230454 0 0 0-24.866203-27.694125l-3.900581-0.243786H938.577278a46.563184 46.563184 0 0 1 0-93.077612h106.924674z" p-id="1492"></path></svg>